# xmcd
#
# Track frame offsets:
#	150
#	16719
#	35635
#	54556
#	74849
#	91590
#	111952
#	134188
#	152996
#	173685
#	190226
#	208861
#
# Disc length: 2997 seconds
#
# Revision: 1
# Processed by: cddbd v1.5.2PL0 Copyright (c) Steve Scherf et al.
# Submitted via: audiograbber 1.83.01
#
DISCID=ae0bb30c
DTITLE=Tommy Castro - Hard Believer
DYEAR=2009
DGENRE=Blues
TTITLE0=Definition of Insanity
TTITLE1=It Is What It Is
TTITLE2=Hard Believer
TTITLE3=Monkey's Paradise
TTITLE4=Ninety-Nine And One Half
TTITLE5=Backup Plan
TTITLE6=Gotta Serve Somebody
TTITLE7=Trimmin' Fat
TTITLE8=Make It Back To Memphis
TTITLE9=Victims of the Darkness
TTITLE10=My Babe
TTITLE11=The Trouble With Soul
EXTD=
EXTT0=
EXTT1=
EXTT2=
EXTT3=
EXTT4=
EXTT5=
EXTT6=
EXTT7=
EXTT8=
EXTT9=
EXTT10=
EXTT11=
PLAYORDER=
